<svg width="15" height="15" viewBox="0 0 15 15" fill="none" xmlns="http://www.w3.org/2000/svg">
<g clip-path="url(#clip0_68_1192)">
<path d="M8.66206 10.8565V11.9782C8.66206 12.6116 8.14869 13.125 7.51531 13.125C6.888 13.125 6.37713 12.621 6.36863 11.9938L6.35325 10.8565M8.66206 10.8565H6.35325M8.66206 10.8565C8.66206 10.4657 8.91044 10.1264 9.23819 9.91369C10.0745 9.37094 10.625 8.4475 10.625 7.39969C10.625 5.7292 9.22587 4.375 7.5 4.375C5.77411 4.375 4.375 5.7292 4.375 7.39969C4.375 8.44744 4.92542 9.37081 5.76166 9.91356C6.0909 10.1273 6.34394 10.4641 6.35325 10.8565M7.5 2.8125V1.5625M12.1875 7.5H13.4375M10.8144 10.8146L11.6983 11.6984M1.5625 7.5H2.8125M3.3016 3.30154L4.18549 4.18543M4.18528 10.8144L3.30139 11.6983M11.6984 3.3016L10.8145 4.18549" stroke="black" stroke-width="2" stroke-linecap="round"/>
</g>
<defs>
<clipPath id="clip0_68_1192">
<rect width="15" height="15" fill="white"/>
</clipPath>
</defs>
</svg>
