<svg width="31" height="30" viewBox="0 0 31 30" fill="none" xmlns="http://www.w3.org/2000/svg">
<path d="M8 7.5C8 6.11929 9.11929 5 10.5 5H14.9031C15.9133 5 16.824 5.60784 17.2116 6.54059L17.3597 6.89691C17.7474 7.82966 18.6582 8.4375 19.6684 8.4375H25.5C26.8807 8.4375 28 9.55679 28 10.9375V20C28 21.3807 26.8807 22.5 25.5 22.5H10.5C9.11929 22.5 8 21.3807 8 20V7.5Z" stroke="black" stroke-width="2" stroke-linecap="round"/>
<path d="M8 8.75H6.75C5.36929 8.75 4.25 9.86929 4.25 11.25V23.75C4.25 25.1307 5.36929 26.25 6.75 26.25H21.75C23.1307 26.25 24.25 25.1307 24.25 23.75V22.5" stroke="black" stroke-width="2" stroke-linecap="round"/>
</svg>
