<svg width="91" height="28" viewBox="0 0 91 28" fill="none" xmlns="http://www.w3.org/2000/svg">
<g clip-path="url(#clip0_78_6088)">
<path d="M0.5 0.5H114.5V27.5H0.5V0.5Z" stroke="#4F4F4F"/>
<g clip-path="url(#clip1_78_6088)">
<path d="M13.6621 15.8565V16.9782C13.6621 17.6116 13.1487 18.125 12.5153 18.125C11.888 18.125 11.3771 17.621 11.3686 16.9938L11.3533 15.8565M13.6621 15.8565H11.3533M13.6621 15.8565C13.6621 15.4657 13.9104 15.1264 14.2382 14.9137C15.0745 14.3709 15.625 13.4475 15.625 12.3997C15.625 10.7292 14.2259 9.375 12.5 9.375C10.7741 9.375 9.375 10.7292 9.375 12.3997C9.375 13.4474 9.92542 14.3708 10.7617 14.9136C11.0909 15.1273 11.3439 15.4641 11.3533 15.8565M12.5 7.8125V6.5625M17.1875 12.5H18.4375M15.8144 15.8146L16.6983 16.6984M6.5625 12.5H7.8125M8.3016 8.30154L9.18549 9.18543M9.18528 15.8144L8.30139 16.6983M16.6984 8.3016L15.8145 9.18549" stroke="black" stroke-width="2" stroke-linecap="round"/>
</g>
</g>
<defs>
<clipPath id="clip0_78_6088">
<rect width="115" height="28" fill="white"/>
</clipPath>
<clipPath id="clip1_78_6088">
<rect width="15" height="15" fill="white" transform="translate(5 5)"/>
</clipPath>
</defs>
</svg>
