<svg width="33" height="32" viewBox="0 0 33 32" fill="none" xmlns="http://www.w3.org/2000/svg">
<path fill-rule="evenodd" clip-rule="evenodd" d="M16.5 2.66663C9.13616 2.66663 3.16663 8.63616 3.16663 16C3.16663 23.3637 9.13616 29.3333 16.5 29.3333C23.8637 29.3333 29.8333 23.3637 29.8333 16C29.8333 12.4637 28.4285 9.07236 25.9281 6.57187C23.4276 4.07139 20.0362 2.66663 16.5 2.66663ZM16.5 26.6666C10.6089 26.6666 5.83329 21.891 5.83329 16C5.83329 10.1089 10.6089 5.33329 16.5 5.33329C22.391 5.33329 27.1666 10.1089 27.1666 16C27.1666 18.8289 26.0428 21.5421 24.0425 23.5425C22.0421 25.5428 19.3289 26.6666 16.5 26.6666ZM17.6733 8.66663V15.52L22.5133 20.36C22.769 20.6237 22.769 21.0429 22.5133 21.3066L21.8066 22.0133C21.5429 22.269 21.1237 22.269 20.86 22.0133L15.5266 16.68C15.4045 16.5545 15.3332 16.3882 15.3266 16.2133V8.66663C15.3266 8.29844 15.6252 7.99996 15.9933 7.99996H17.0066C17.3748 7.99996 17.6733 8.29844 17.6733 8.66663Z" fill="black"/>
</svg>
