<svg width="33" height="32" viewBox="0 0 33 32" fill="none" xmlns="http://www.w3.org/2000/svg">
<path d="M16.5002 2.66602C11.1749 2.66602 6.84253 6.99842 6.84253 12.3236C6.84253 18.9324 15.4851 28.6344 15.8531 29.0441C16.1987 29.4291 16.8022 29.4284 17.1473 29.0441C17.5151 28.6344 26.1578 18.9324 26.1578 12.3236C26.1577 6.99842 21.8254 2.66602 16.5002 2.66602ZM16.5002 17.1827C13.8209 17.1827 11.6412 15.0029 11.6412 12.3236C11.6412 9.64435 13.821 7.46466 16.5002 7.46466C19.1794 7.46466 21.3591 9.6444 21.3591 12.3237C21.3591 15.0029 19.1794 17.1827 16.5002 17.1827Z" fill="black"/>
</svg>
